<svg xmlns="http://www.w3.org/2000/svg" width="26" height="26"><path d="M25.458 8.666h-1.625V7.041a.542.542 0 0 0-.541-.542h-2.167a.542.542 0 0 0-.542.542v1.624H9.208a.542.542 0 0 0-.541.542v13.542h-3.25V9.694a4.875 4.875 0 1 0-1.084 0v14.681a.542.542 0 0 0 1.084 0v-.542h3.25v1.625a.541.541 0 0 0 .541.542h16.25a.542.542 0 0 0 .542-.542V9.208a.543.543 0 0 0-.542-.542zM4.875 3.25A1.627 1.627 0 0 0 3.25 4.875a.542.542 0 1 1-1.083 0 2.712 2.712 0 0 1 2.708-2.709.542.542 0 1 1 0 1.083zm17.875 19.5H11.917V11.916H22.75v10.833zm-5.417-1.083A4.333 4.333 0 1 0 13 17.333a4.338 4.338 0 0 0 4.333 4.334zm0-6.5a.542.542 0 1 1 0 1.083 1.085 1.085 0 0 0-1.083 1.084.542.542 0 1 1-1.083 0 2.168 2.168 0 0 1 2.166-2.168z" fill="#fff" fill-rule="evenodd"/></svg>